<svg width="14" height="14" viewBox="0 0 14 14" fill="none" xmlns="http://www.w3.org/2000/svg">
    <path
        d="M6.23471 1.23964C6.53406 0.318321 7.83748 0.318321 8.13683 1.23964L9.02392 3.96992C9.15779 4.38194 9.54175 4.66091 9.97498 4.66091H12.8457C13.8145 4.66091 14.2172 5.90051 13.4335 6.46992L11.111 8.15739C10.7605 8.41203 10.6139 8.86339 10.7477 9.27541L11.6349 12.0058C11.9342 12.9271 10.8797 13.6932 10.096 13.1238L7.77357 11.4364C7.42307 11.1817 6.94846 11.1817 6.59797 11.4364L4.27554 13.1238C3.49184 13.6932 2.43734 12.9271 2.73669 12.0058L3.62381 9.27541C3.75768 8.86339 3.61102 8.41203 3.26055 8.15739L0.938004 6.46991C0.154304 5.90051 0.557085 4.66091 1.5258 4.66091H4.39656C4.82979 4.66091 5.21374 4.38194 5.34762 3.96992L6.23471 1.23964Z"
        fill="#FFA858" />
</svg>